<?xml version="1.0" standalone="no"?>
<!DOCTYPE svg PUBLIC "-//W3C//DTD SVG 20010904//EN"
 "http://www.w3.org/TR/2001/REC-SVG-20010904/DTD/svg10.dtd">
<svg version="1.0" xmlns="http://www.w3.org/2000/svg"
 width="640.000000pt" height="640.000000pt" viewBox="0 0 640.000000 640.000000"
 preserveAspectRatio="xMidYMid meet">

<g transform="translate(0.000000,640.000000) scale(0.100000,-0.100000)"
fill="#000000" stroke="none">
<path d="M3050 5034 c-170 -45 -356 -172 -512 -349 -295 -336 -480 -843 -424
-1164 27 -157 96 -295 213 -429 31 -35 54 -64 52 -66 -2 -1 -49 -20 -104 -42
-120 -47 -150 -72 -259 -218 -280 -375 -582 -997 -550 -1133 28 -122 173 -223
444 -310 l120 -38 0 -47 c0 -46 18 -78 48 -89 6 -2 12 -13 14 -24 2 -16 -3
-21 -30 -23 -31 -3 -33 -6 -30 -35 l3 -32 1165 0 1165 0 3 33 c3 30 1 32 -27
32 -16 0 -32 3 -34 7 -8 14 12 53 27 53 21 0 36 32 36 79 0 39 1 40 53 57 28
9 101 39 160 65 267 118 399 245 384 370 -9 76 -54 194 -132 350 -140 280
-400 680 -529 817 -42 45 -144 100 -223 121 -24 7 -43 14 -43 17 0 3 24 32 53
64 119 132 203 324 213 492 17 252 -95 610 -277 888 -192 294 -430 490 -674
556 -65 18 -235 17 -305 -2z m37 -1168 c15 -32 15 -37 0 -60 -19 -29 -79 -49
-146 -50 -38 -1 -47 3 -77 38 -61 71 -53 78 111 95 44 5 83 9 88 10 4 0 15
-14 24 -33z m433 9 c47 -8 86 -15 87 -15 2 0 -4 -15 -13 -33 -9 -18 -31 -44
-51 -57 -32 -22 -38 -23 -89 -12 -80 16 -108 33 -112 64 -8 70 25 80 178 53z
m-694 -229 c43 -9 63 -5 223 41 147 42 202 42 351 -3 67 -20 118 -28 171 -29
71 0 79 2 132 38 31 20 58 37 60 37 6 0 -10 -99 -23 -155 -7 -27 -33 -89 -57
-137 -165 -323 -541 -408 -796 -179 -116 105 -196 259 -213 412 l-7 60 61 -39
c34 -22 78 -43 98 -46z"/>
</g>
</svg>
